<svg width="28" height="31" viewBox="0 0 28 31" fill="none" xmlns="http://www.w3.org/2000/svg">
<g filter="url(#filter0_d_36_42404)">
<path d="M17.5926 3.02719C16.6805 2.04234 15.4064 1.5 14.0001 1.5C12.5864 1.5 11.3081 2.03906 10.4001 3.01781C9.48233 4.00734 9.03515 5.35219 9.14015 6.80437C9.34827 9.66937 11.5284 12 14.0001 12C16.4719 12 18.6483 9.66984 18.8597 6.80531C18.9661 5.36625 18.5161 4.02422 17.5926 3.02719Z" fill="#B52184"/>
<path d="M22.2501 22.5H5.75015C5.53418 22.5028 5.3203 22.4574 5.12407 22.3672C4.92784 22.2769 4.75419 22.1441 4.61577 21.9783C4.31108 21.6141 4.18827 21.1167 4.27921 20.6137C4.67483 18.4191 5.90952 16.5755 7.85015 15.2812C9.57421 14.1323 11.7581 13.5 14.0001 13.5C16.2422 13.5 18.4261 14.1328 20.1501 15.2812C22.0908 16.575 23.3255 18.4186 23.7211 20.6133C23.812 21.1162 23.6892 21.6136 23.3845 21.9778C23.2461 22.1437 23.0725 22.2766 22.8763 22.367C22.6801 22.4573 22.4662 22.5028 22.2501 22.5Z" fill="#B52184"/>
</g>
<defs>
<filter id="filter0_d_36_42404" x="-2" y="0" width="32" height="32" filterUnits="userSpaceOnUse" color-interpolation-filters="sRGB">
<feFlood flood-opacity="0" result="BackgroundImageFix"/>
<feColorMatrix in="SourceAlpha" type="matrix" values="0 0 0 0 0 0 0 0 0 0 0 0 0 0 0 0 0 0 127 0" result="hardAlpha"/>
<feOffset dy="4"/>
<feGaussianBlur stdDeviation="2"/>
<feComposite in2="hardAlpha" operator="out"/>
<feColorMatrix type="matrix" values="0 0 0 0 0 0 0 0 0 0 0 0 0 0 0 0 0 0 0.25 0"/>
<feBlend mode="normal" in2="BackgroundImageFix" result="effect1_dropShadow_36_42404"/>
<feBlend mode="normal" in="SourceGraphic" in2="effect1_dropShadow_36_42404" result="shape"/>
</filter>
</defs>
</svg>
